<svg width="75" height="56" viewBox="0 0 75 56" fill="none" xmlns="http://www.w3.org/2000/svg">
<g filter="url(#filter0_d)">
<path fill-rule="evenodd" clip-rule="evenodd" d="M35.634 15.9061C29.2 16.5823 25.7223 20.8382 26.4125 27.4054C26.8778 31.832 29.0097 34.8642 32.348 36.1401C32.9157 34.6201 34.8341 33.3661 37.2232 33.115C39.6908 32.8557 41.8896 33.7471 42.7026 35.197C45.8582 33.2941 47.4436 29.8149 46.9633 25.2454C46.2731 18.6782 41.9322 15.2441 35.634 15.9061ZM37.1531 30.8817C34.6962 31.1399 33.6767 29.6662 33.3623 26.6749C33.0479 23.6837 33.7437 21.9472 36.187 21.6904C38.6846 21.4279 39.7127 22.9832 40.0271 25.9744C40.3429 28.9793 39.6506 30.6192 37.1531 30.8817ZM60.7072 28.3099L60.2593 28.3569C59.5407 32.4878 57.4903 34.6553 54.6127 34.9578C51.2599 35.3102 49.1552 33.0432 48.7065 28.7739L47.2903 15.2996L54.2537 14.5678L55.4555 26.0025C55.6199 27.5661 56.4922 28.423 57.8496 28.2803C59.5327 28.1034 60.3278 26.6589 60.1292 24.769L59.0045 14.0684L65.9679 13.3365L68.0286 32.9429L61.2689 33.6533L60.7072 28.3099ZM9.52539 39.7516L9.21972 45.4611L9.26825 45.4631C10.3738 45.5083 11.1971 45.542 12.5617 45.3985C17.9641 44.8307 20.3724 42.5431 21.6454 37.6804L26.9288 17.4396L19.4361 18.2271L18.8225 25.8386C18.7806 26.3417 18.7391 26.8493 18.6972 27.3621C18.5935 28.6306 18.4873 29.9313 18.3647 31.2755L17.9167 31.3226C17.3981 29.5213 16.8372 27.7107 16.2442 25.9859L13.8708 18.8121L6.29661 19.6082L14.9906 38.2149C14.5248 39.2673 13.7361 39.5977 12.0937 39.7703C11.2793 39.8559 10.357 39.8291 9.52539 39.7516Z" fill="white"/>
<path fill-rule="evenodd" clip-rule="evenodd" d="M29.1169 20.3982L46.4478 16.5191C50.2013 15.671 52.6095 12.0774 51.8572 8.4448C51.0841 4.74568 47.3127 2.42021 43.4777 3.27692L25.9932 7.19039C22.2261 8.03997 19.8179 11.6336 20.5838 15.2647C21.1147 17.8051 23.0598 19.6976 25.4684 20.3565C25.6497 20.8094 25.9249 21.2985 26.3417 21.769C28.4264 24.1068 31.6119 23.9919 31.6119 23.9919C31.6119 23.9919 30.2838 22.9767 29.3708 21.0794C29.2539 20.8352 29.1716 20.6083 29.1169 20.3982Z" fill="#64D5DC"/>
<path d="M24.6696 13.7906L24.0931 13.9199L23.7523 12.3748L24.3288 12.2455L24.0202 10.8758L26.0048 10.4335L26.3134 11.8032L27.5872 11.5181L27.928 13.0632L26.6542 13.3483L27.0701 15.2154C27.1451 15.5374 27.2965 15.6727 27.6709 15.5784C27.8988 15.5269 28.1588 15.3896 28.301 15.3059L28.9076 17.0293C28.4796 17.2667 28.2346 17.4162 27.5645 17.5691C26.1835 17.8792 25.4148 17.094 25.1783 16.0191L24.6696 13.7906Z" fill="#26248F"/>
<path d="M28.7461 14.1869C28.3303 12.3198 29.1911 10.9783 31.0143 10.5667C32.8118 10.1716 34.1756 11.0043 34.5928 12.885C35.0072 14.7385 34.1342 16.095 32.3382 16.5037C30.5136 16.9017 29.1605 16.0404 28.7461 14.1869ZM30.7307 13.7446C30.9158 14.5912 31.2587 14.9813 31.9695 14.8241C32.6804 14.6669 32.8204 14.171 32.6339 13.3108C32.4474 12.4506 32.0895 12.0484 31.3787 12.2056C30.6678 12.3627 30.5307 12.8858 30.7307 13.7446Z" fill="#26248F"/>
<path d="M38.9707 10.4041L39.0778 10.3791C39.1728 9.32436 39.6365 8.64328 40.4273 8.46393C41.5396 8.20955 42.3891 9.11004 42.8256 11.0437C43.2636 12.991 42.8228 14.1508 41.7241 14.4037C40.8925 14.5874 40.2109 14.1091 39.6873 13.1744L39.5937 13.198L39.9095 14.6357L37.9248 15.078L36.2451 7.5838L38.2298 7.14151L38.9707 10.4041ZM40.921 11.4638C40.7403 10.658 40.4045 10.3359 39.828 10.4652C39.345 10.571 39.1178 11.021 39.2514 11.6393L39.3529 12.0823C39.4836 12.6734 39.8859 12.9748 40.3552 12.8705C40.9589 12.7383 41.1018 12.2696 40.921 11.4638Z" fill="#26248F"/>
<path d="M43.1101 11.1376C42.6692 9.16317 43.4293 7.77733 45.3204 7.35862C47.0771 6.96778 48.0987 7.80893 48.4367 9.3268C48.4924 9.59588 48.5424 9.81058 48.5739 10.1097L45.0875 10.8885C45.3319 11.6464 45.682 11.8433 46.2585 11.714C46.835 11.5847 46.9407 11.2849 46.9743 10.9514L48.7253 11.0286C48.6896 11.9946 48.2517 12.9204 46.59 13.3013C44.9404 13.6671 43.5302 13.0455 43.1101 11.1376ZM44.9261 10.1357L46.6421 9.74912C46.4928 8.98125 46.1341 8.70276 45.5983 8.82781C45.0082 8.95857 44.7968 9.29697 44.9261 10.1357Z" fill="#26248F"/>
</g>
<defs>
<filter id="filter0_d" x="0.2323" y="0.410034" width="74.4851" height="55.358" filterUnits="userSpaceOnUse" color-interpolation-filters="sRGB">
<feFlood flood-opacity="0" result="BackgroundImageFix"/>
<feColorMatrix in="SourceAlpha" type="matrix" values="0 0 0 0 0 0 0 0 0 0 0 0 0 0 0 0 0 0 127 0" result="hardAlpha"/>
<feOffset dy="4"/>
<feGaussianBlur stdDeviation="3"/>
<feColorMatrix type="matrix" values="0 0 0 0 0 0 0 0 0 0 0 0 0 0 0 0 0 0 0.04 0"/>
<feBlend mode="normal" in2="BackgroundImageFix" result="effect1_dropShadow"/>
<feBlend mode="normal" in="SourceGraphic" in2="effect1_dropShadow" result="shape"/>
</filter>
</defs>
</svg>
