<svg width="511" height="511" viewBox="0 0 511 511" fill="none" xmlns="http://www.w3.org/2000/svg">
<g clip-path="url(#clip0)">
<path d="M22 245L253.5 19.5H275.5L491 238.5V280.5L439.5 296.5V462L415 491.5L323.5 490L317.5 368L304 337.5H219L192 357V491.5L111.5 498.5L76 476.5V433.5L65 280.5H30.5L22 245Z" fill="white" stroke="black"/>
<path d="M498.225 221.263C498.209 221.251 498.197 221.235 498.186 221.224L289.738 12.7836C280.853 3.89473 269.04 -0.998047 256.475 -0.998047C243.909 -0.998047 232.097 3.89473 223.208 12.7836L14.8689 221.119C14.7987 221.189 14.7247 221.263 14.6584 221.333C-3.58719 239.684 -3.556 269.458 14.7481 287.762C23.1106 296.128 34.1515 300.97 45.9605 301.481C46.4439 301.528 46.9273 301.551 47.4147 301.551H55.7187V454.947C55.7187 485.305 80.4205 510.003 110.779 510.003H192.331C200.6 510.003 207.301 503.297 207.301 495.032V374.767C207.301 360.916 218.572 349.648 232.424 349.648H280.525C294.377 349.648 305.644 360.916 305.644 374.767V495.032C305.644 503.297 312.346 510.003 320.615 510.003H402.166C432.529 510.003 457.227 485.305 457.227 454.947V301.551H464.93C477.492 301.551 489.305 296.658 498.197 287.766C516.521 269.434 516.529 239.606 498.225 221.263V221.263ZM477.024 266.596C473.792 269.828 469.496 271.61 464.93 271.61H442.256C433.987 271.61 427.285 278.311 427.285 286.58V454.947C427.285 468.794 416.018 480.061 402.166 480.061H335.586V374.767C335.586 344.409 310.888 319.707 280.525 319.707H232.424C202.062 319.707 177.36 344.409 177.36 374.767V480.061H110.779C96.9311 480.061 85.6602 468.794 85.6602 454.947V286.58C85.6602 278.311 78.9585 271.61 70.6895 271.61H48.4049C48.171 271.594 47.941 271.582 47.7032 271.578C43.2431 271.5 39.0599 269.73 35.9254 266.592C29.2588 259.925 29.2588 249.076 35.9254 242.405C35.9293 242.405 35.9293 242.401 35.9332 242.397L35.9449 242.386L244.385 33.9532C247.613 30.7212 251.906 28.9434 256.475 28.9434C261.04 28.9434 265.332 30.7212 268.564 33.9532L476.958 242.343C476.989 242.374 477.024 242.405 477.055 242.436C483.687 249.115 483.675 259.941 477.024 266.596V266.596Z" fill="black"/>
</g>
<defs>
<clipPath id="clip0">
<rect width="511" height="511" fill="white"/>
</clipPath>
</defs>
</svg>
