<svg width="56" height="36" viewBox="0 0 56 36" fill="none" xmlns="http://www.w3.org/2000/svg">
<path d="M49.4805 24.8744H49.0616C47.9953 28.6253 45.8882 30.4309 43.1971 30.4309C40.0618 30.4309 38.3354 28.1295 38.3354 24.137V11.5364H44.8473V22.2297C44.8473 23.6919 45.5708 24.5693 46.8402 24.5693C48.4142 24.5693 49.2901 23.3105 49.2901 21.5431V11.5364H55.8019V29.8714H49.4805V24.8744Z" fill="#1C404B"/>
<path fill-rule="evenodd" clip-rule="evenodd" d="M27.4953 10.9643C21.4785 10.9643 17.8481 14.5626 17.8481 20.7039C17.8481 24.8434 19.5252 27.8552 22.4887 29.3599C23.1616 28.0092 25.0579 27.036 27.292 27.036C29.5996 27.036 31.5468 28.0743 32.1577 29.4944C35.2617 28.0413 37.0663 24.9773 37.0663 20.7039C37.0663 14.5626 33.3852 10.9643 27.4953 10.9643ZM27.4445 24.9635C25.147 24.9635 24.3473 23.5012 24.3473 20.7039C24.3473 17.9067 25.1597 16.3681 27.4445 16.3681C29.7802 16.3681 30.5799 17.9067 30.5799 20.7039C30.5799 23.5139 29.7802 24.9635 27.4445 24.9635Z" fill="#1C404B"/>
<path d="M0.190405 35.733L1.02819 30.4817C1.78981 30.6343 2.64028 30.7487 3.4019 30.7487C4.93783 30.7487 5.69945 30.5199 6.23258 29.5917L0 11.5364H7.08306L8.58091 18.4025C8.96172 20.0555 9.30445 21.7847 9.6091 23.5012H10.028C10.3707 21.772 10.6754 20.119 10.98 18.5169L12.2875 11.5364H19.2944L12.4398 29.7443C10.7896 34.1182 8.33973 36 3.28766 36C1.9929 36 1.23128 35.8856 0.190405 35.733Z" fill="#1C404B"/>
<path fill-rule="evenodd" clip-rule="evenodd" d="M21.0304 14.4857L37.4374 12.5826C40.9916 12.163 43.5684 9.07331 43.2257 5.64027C42.8703 2.14366 39.608 -0.373896 35.9776 0.0456968L19.4251 1.96565C15.8582 2.38525 13.2813 5.47498 13.6368 8.90802C13.8809 11.3094 15.496 13.249 17.6599 14.0926C17.7835 14.5291 17.9906 15.0081 18.3302 15.4837C20.0312 17.8487 22.9888 18.0521 22.9888 18.0521C22.9888 18.0521 21.8591 16.9841 21.199 15.1404C21.1147 14.9032 21.0606 14.6853 21.0304 14.4857Z" fill="#3DCAD3"/>
<path d="M17.5595 7.94167L17.0137 8.00524L16.8486 6.54302L17.3945 6.47945L17.2421 5.18252L19.1208 4.96637L19.2731 6.26329L20.479 6.12343L20.644 7.58565L19.4381 7.72551L19.6412 9.49289C19.6793 9.79805 19.8063 9.93792 20.1617 9.88706C20.3775 9.86163 20.6313 9.75991 20.771 9.69633L21.1645 11.3493C20.7456 11.5273 20.5044 11.6417 19.8697 11.718C18.5623 11.8706 17.9276 11.0695 17.8134 10.0524L17.5595 7.94167Z" fill="white"/>
<path d="M21.2911 8.70458C21.088 6.9372 22.0146 5.78014 23.7409 5.5767C25.4419 5.38598 26.6224 6.28874 26.8255 8.06883C27.0286 9.82349 26.0893 10.9933 24.3883 11.1967C22.662 11.3874 21.4942 10.4592 21.2911 8.70458ZM23.1697 8.48842C23.2586 9.28946 23.5378 9.68363 24.2106 9.60734C24.8834 9.53105 25.0611 9.08602 24.9722 8.27227C24.8834 7.45851 24.5914 7.05163 23.9186 7.12792C23.2459 7.20421 23.0682 7.67467 23.1697 8.48842Z" fill="white"/>
<path d="M31.1164 6.19969L31.218 6.18697C31.4084 5.22064 31.9034 4.63575 32.6523 4.54674C33.7059 4.41959 34.4041 5.33507 34.6199 7.16602C34.8356 9.00969 34.3152 10.0396 33.2743 10.1668C32.4873 10.2558 31.9034 9.74716 31.5099 8.83168L31.4211 8.8444L31.5734 10.2049L29.6947 10.4211L28.8696 3.32611L30.7483 3.10995L31.1164 6.19969ZM32.8174 7.36946C32.7285 6.60657 32.4492 6.27598 31.9034 6.33955C31.4464 6.39041 31.1926 6.78458 31.256 7.36946L31.3068 7.78906C31.3703 8.34851 31.713 8.66639 32.1573 8.61553C32.7285 8.55195 32.9062 8.13236 32.8174 7.36946Z" fill="white"/>
<path d="M34.8736 7.28043C34.6578 5.41134 35.4956 4.20342 37.2854 3.99998C38.9483 3.80925 39.8114 4.68658 39.9764 6.12337C40.0018 6.37767 40.0272 6.58111 40.0272 6.86084L36.7269 7.24229C36.8792 7.96704 37.1838 8.1832 37.7297 8.11962C38.2755 8.05605 38.4024 7.78903 38.4659 7.48387L40.078 7.72546C39.9511 8.6155 39.456 9.42926 37.882 9.61999C36.3207 9.79799 35.0767 9.08596 34.8736 7.28043ZM36.6507 6.53025L38.2755 6.33953C38.212 5.61478 37.9074 5.32233 37.3996 5.38591C36.8411 5.44948 36.6126 5.74193 36.6507 6.53025Z" fill="white"/>
</svg>
