<svg width="28" height="28" viewBox="0 0 28 28" fill="none" xmlns="http://www.w3.org/2000/svg">
<path d="M14 27.3334C6.63596 27.3334 0.666626 21.364 0.666626 14C0.666626 6.63602 6.63596 0.666687 14 0.666687C21.364 0.666687 27.3333 6.63602 27.3333 14C27.3333 21.364 21.364 27.3334 14 27.3334ZM14 24.6667C16.8289 24.6667 19.542 23.5429 21.5424 21.5425C23.5428 19.5421 24.6666 16.829 24.6666 14C24.6666 11.171 23.5428 8.45794 21.5424 6.45755C19.542 4.45716 16.8289 3.33335 14 3.33335C11.171 3.33335 8.45788 4.45716 6.45749 6.45755C4.4571 8.45794 3.33329 11.171 3.33329 14C3.33329 16.829 4.4571 19.5421 6.45749 21.5425C8.45788 23.5429 11.171 24.6667 14 24.6667ZM12.6666 7.33335H15.3333V10H12.6666V7.33335ZM12.6666 12.6667H15.3333V20.6667H12.6666V12.6667Z" fill="#664EFC"/>
</svg>
