<svg width="17" height="22" viewBox="0 0 17 22" fill="none" xmlns="http://www.w3.org/2000/svg">
<path d="M11.8586 11L3.33329 5.31601V16.684L11.8586 11ZM15.8346 11.5547L1.70263 20.976C1.60223 21.0428 1.4856 21.0811 1.36515 21.0869C1.2447 21.0927 1.12494 21.0656 1.01862 21.0087C0.912313 20.9518 0.823431 20.8671 0.761444 20.7637C0.699457 20.6602 0.666688 20.5419 0.666626 20.4213V1.57868C0.666688 1.45809 0.699457 1.33977 0.761444 1.23633C0.823431 1.1329 0.912313 1.04821 1.01862 0.991288C1.12494 0.93437 1.2447 0.907353 1.36515 0.913115C1.4856 0.918877 1.60223 0.957203 1.70263 1.02401L15.8346 10.4453C15.9259 10.5062 16.0008 10.5887 16.0526 10.6855C16.1044 10.7822 16.1314 10.8903 16.1314 11C16.1314 11.1098 16.1044 11.2178 16.0526 11.3146C16.0008 11.4113 15.9259 11.4938 15.8346 11.5547Z" fill="#664EFC"/>
</svg>
