<svg width="28" height="28" viewBox="0 0 28 28" fill="none" xmlns="http://www.w3.org/2000/svg">
<path d="M15.3333 24.5334C16.8389 24.2255 18.192 23.4072 19.1638 22.2167C20.1356 21.0263 20.6664 19.5368 20.6666 18V14C20.6684 13.0824 20.48 12.1745 20.1133 11.3334H7.88663C7.51991 12.1745 7.3315 13.0824 7.33329 14V18C7.33348 19.5368 7.86436 21.0263 8.83615 22.2167C9.80795 23.4072 11.161 24.2255 12.6666 24.5334V16.6667H15.3333V24.5334ZM5.38129 21.5867C4.90816 20.4502 4.66525 19.2311 4.66663 18H0.666626V15.3334H4.66663V14C4.66663 13.1427 4.78263 12.3134 4.99863 11.5254L2.04796 9.82135L3.38129 7.51202L6.07463 9.06669C6.15963 8.9311 6.24811 8.79773 6.33996 8.66669H21.66C21.752 8.79735 21.84 8.93202 21.9253 9.06669L24.6186 7.51202L25.952 9.82135L23.0013 11.5254C23.2173 12.312 23.3333 13.1427 23.3333 14V15.3334H27.3333V18H23.3333C23.3333 19.2707 23.08 20.4827 22.6186 21.5867L25.952 23.512L24.6186 25.8214L21.2506 23.8774C20.3765 24.9579 19.2716 25.829 18.017 26.4271C16.7623 27.0251 15.3898 27.3347 14 27.3334C12.6101 27.3347 11.2376 27.0251 9.98297 26.4271C8.72836 25.829 7.62347 24.9579 6.74929 23.8774L3.38129 25.8214L2.04796 23.512L5.38129 21.588V21.5867ZM8.66663 6.00002C8.66663 4.58553 9.22853 3.22898 10.2287 2.22878C11.2289 1.22859 12.5855 0.666687 14 0.666687C15.4144 0.666687 16.771 1.22859 17.7712 2.22878C18.7714 3.22898 19.3333 4.58553 19.3333 6.00002H8.66663Z" fill="#664EFC"/>
</svg>
