<svg width="28" height="28" viewBox="0 0 28 28" fill="none" xmlns="http://www.w3.org/2000/svg">
<path d="M14 27.3334C6.63596 27.3334 0.666626 21.364 0.666626 14C0.666626 6.63602 6.63596 0.666687 14 0.666687C21.364 0.666687 27.3333 6.63602 27.3333 14C27.3333 21.364 21.364 27.3334 14 27.3334ZM7.35063 22.3414C9.23802 23.8503 11.5835 24.6705 14 24.6667C16.6266 24.6667 19.0306 23.7174 20.8893 22.144C20.0209 21.253 18.9827 20.5452 17.836 20.0624C16.6893 19.5797 15.4575 19.3317 14.2133 19.3334C12.9234 19.3319 11.6473 19.5985 10.4659 20.1163C9.28453 20.6341 8.22367 21.3918 7.35063 22.3414ZM5.48796 20.4267C6.60856 19.2374 7.96085 18.2903 9.46148 17.6436C10.9621 16.997 12.5793 16.6645 14.2133 16.6667C15.7888 16.6646 17.3492 16.9738 18.805 17.5765C20.2607 18.1792 21.583 19.0635 22.696 20.1787C23.8374 18.5722 24.5115 16.6809 24.6434 14.7146C24.7753 12.7483 24.3599 10.7839 23.4433 9.03929C22.5267 7.29472 21.1447 5.83818 19.4506 4.83128C17.7565 3.82438 15.8166 3.30647 13.8461 3.33502C11.8756 3.36357 9.95151 3.93747 8.28732 4.99303C6.62313 6.04859 5.28391 7.54456 4.41821 9.31496C3.55252 11.0854 3.19422 13.061 3.38305 15.0226C3.57188 16.9843 4.30046 18.8553 5.48796 20.428V20.4267ZM14 15.3334C12.5855 15.3334 11.2289 14.7715 10.2287 13.7713C9.22853 12.7711 8.66663 11.4145 8.66663 10C8.66663 8.58553 9.22853 7.22898 10.2287 6.22878C11.2289 5.22859 12.5855 4.66669 14 4.66669C15.4144 4.66669 16.771 5.22859 17.7712 6.22878C18.7714 7.22898 19.3333 8.58553 19.3333 10C19.3333 11.4145 18.7714 12.7711 17.7712 13.7713C16.771 14.7715 15.4144 15.3334 14 15.3334ZM14 12.6667C14.7072 12.6667 15.3855 12.3857 15.8856 11.8856C16.3857 11.3855 16.6666 10.7073 16.6666 10C16.6666 9.29278 16.3857 8.6145 15.8856 8.1144C15.3855 7.61431 14.7072 7.33335 14 7.33335C13.2927 7.33335 12.6144 7.61431 12.1143 8.1144C11.6142 8.6145 11.3333 9.29278 11.3333 10C11.3333 10.7073 11.6142 11.3855 12.1143 11.8856C12.6144 12.3857 13.2927 12.6667 14 12.6667Z" fill="#664EFC"/>
</svg>
