<svg width="48" height="48" viewBox="0 0 48 48" fill="none" xmlns="http://www.w3.org/2000/svg">
<circle opacity="0.2" cx="24" cy="24" r="24" fill="#172153"/>
<path d="M37 27C37 34.1797 32 39.5 24 39.5C15.5 39.5 10.5 34.1797 10.5 27C10.5 19.8203 16.8203 14 24 14C31.1797 14 37 19.8203 37 27Z" fill="white"/>
<path fill-rule="evenodd" clip-rule="evenodd" d="M23.9272 10.6377C15.0805 10.6377 9.74252 15.9285 9.74252 24.9584C9.74252 31.0449 12.2084 35.4732 16.5658 37.6857C17.5552 35.6997 20.3434 34.2686 23.6284 34.2686C27.0214 34.2686 29.8844 35.7953 30.7826 37.8834C35.3465 35.7468 38 31.2416 38 24.9584C38 15.9285 32.5874 10.6377 23.9272 10.6377ZM23.8526 31.2213C20.4744 31.2213 19.2985 29.0714 19.2985 24.9584C19.2985 20.8454 20.493 18.5832 23.8526 18.5832C27.2868 18.5832 28.4626 20.8454 28.4626 24.9584C28.4626 29.0901 27.2868 31.2213 23.8526 31.2213Z" fill="#6C70DD"/>
<path fill-rule="evenodd" clip-rule="evenodd" d="M12.9296 9.605C10.4107 9.82252 8.67439 12.0255 9.05144 14.5255C9.37195 16.6506 11.1163 18.3062 13.1794 18.6214C13.2623 18.9922 13.4606 19.4442 13.9009 19.8916C15.4676 21.4726 18.1919 21.6085 18.1919 21.6085C18.1919 21.6085 17.1513 20.8946 16.5433 19.6621C16.2807 19.1261 16.3366 18.7376 16.4848 18.4691L21.0993 18.0706C23.6182 17.8531 25.3545 15.6501 24.9774 13.1501C24.6004 10.6501 22.2528 8.79985 19.7339 9.01737L12.9296 9.605Z" fill="#8ADFE5"/>
</svg>
